<svg fill="none" height="48" viewBox="0 0 48 48" width="48" xmlns="http://www.w3.org/2000/svg"><path d="m21.105 8.65487c.5994.38081.7589 1.16295.4512 1.80293-.4257.8857-.8793 1.8902-1.3368 3.0015-.1371.333-.0806.7135.154.9868.6459.7523 2.0901 2.3569 4.0234 4.04.35.3047.4584.8074.2688 1.231-.4997 1.1163-1.4623 3.4403-2.2055 6.2901-.21.8052.4609 1.2078.9965.5709 1.0699-1.2722 2.7687-3.6424 5.2244-8.0075.1934-.3438.1662-.7725-.0875-1.0745-.5643-.6716-1.6944-1.9263-3.2542-3.2197-.1927-.1598-.2441-.4342-.1119-.6467.5941-.955 2.28-3.5872 4.1968-5.88822.19-.22806.4459-.39345.7349-.46109 5.7133-1.33711 12.0623 2.19682 13.4709 8.70621.853 3.6971.2149 7.6733-1.7461 10.8827-3.4316 5.625-8.9648 10.0051-14.3624 13.9745-2.0962 1.5416-4.9468 1.5416-7.043 0-5.3976-3.9694-10.93086-8.3495-14.36241-13.9745-1.96106-3.2094-2.59904-7.1856-1.74609-10.8827 1.68648-7.79347 10.4547-11.32177 16.735-7.33173z" fill="#a6cfff"/></svg>